Coordinates
version=1
nRows=30
nColumns=33
inDegrees=yes

Units are S.I. units (second, meters, Newtons, ...)
Angles are in degrees.

endheader
time	ground_thorax_rot_x	ground_thorax_rot_y	ground_thorax_rot_z	ground_thorax_tx	ground_thorax_ty	ground_thorax_tz	clav_prot_r	clav_elev_r	scapula_abduction_r	scapula_elevation_r	scapula_upward_rot_r	scapula_winging_r	shoulder_elv_r	plane_of_elev_r	axial_rot_r	elbow_flexion_r	pro_sup_r	wrist_flex_r	wrist_dev_r	clav_prot_l	clav_elev_l	scapula_abduction_l	scapula_elevation_l	scapula_upward_rot_l	scapula_winging_l	shoulder_elv_l	plane_of_elev_l	axial_rot_l	elbow_flexion_l	pro_sup_l	wrist_flex_l	wrist_dev_l	
10.7800	-21.621109	-33.431649	54.296735	-12.916617	796.835370	-40.531229	28.728122	-45.000000	40.042729	-45.000000	-45.000000	-2623.732063	-3885.266439	20.550448	-146.333183	1800.163304	-191.754006	11.892356	13.764391	-0.631633	31.631298	-29.333558	-45.000000	-45.000000	-2074.285391	-2442.889154	26.850930	50.305688	1429.407092	40.817415	12.573720	-15.442655	
10.7900	-21.916802	-33.336478	53.860994	-15.108978	798.316725	-40.550314	28.659963	-45.000000	40.085644	-45.000000	-45.000000	-2623.775845	-3885.166333	20.621985	-146.632441	1800.108858	-191.920077	12.005823	13.820377	-0.596727	31.699080	-29.497282	-45.000000	-45.000000	-2074.121989	-2442.793086	26.880966	50.383711	1429.407106	40.689489	12.641943	-15.478834	
10.8000	-22.215496	-33.239091	53.418068	-17.334321	799.841181	-40.575707	28.591341	-45.000000	40.129418	-45.000000	-45.000000	-2623.822008	-3885.067251	20.693115	-146.920777	1800.053903	-192.076977	12.123647	13.871619	-0.565456	31.765552	-29.658407	-45.000000	-45.000000	-2073.959425	-2442.699235	26.911820	50.463390	1429.403983	40.531976	12.712326	-15.509462	
10.8100	-22.516143	-33.140393	52.966044	-19.586400	801.404552	-40.608023	28.521010	-45.000000	40.174082	-45.000000	-45.000000	-2623.868516	-3884.969474	20.764026	-147.195496	1799.999265	-192.227155	12.246407	13.918404	-0.535798	31.829637	-29.817045	-45.000000	-45.000000	-2073.797492	-2442.610726	26.942899	50.543095	1429.398284	40.347417	12.783626	-15.536570	
10.8200	-22.809543	-33.042854	52.519414	-21.859243	803.002522	-40.648179	28.455686	-45.000000	40.220535	-45.000000	-45.000000	-2623.922003	-3884.870806	20.836921	-147.458441	1799.949305	-192.374293	12.370370	13.963213	-0.513968	31.892502	-29.969092	-45.000000	-45.000000	-2073.639453	-2442.522586	26.972301	50.620429	1429.386402	40.141597	12.858545	-15.563527	
10.8300	-23.098543	-32.945807	52.073245	-24.147213	804.630559	-40.697349	28.392522	-45.000000	40.267510	-45.000000	-45.000000	-2623.979976	-3884.770788	20.910458	-147.710111	1799.902227	-192.521796	12.496516	14.006603	-0.495531	31.953619	-30.116811	-45.000000	-45.000000	-2073.485006	-2442.436904	27.000890	50.693528	1429.370664	39.922075	12.935268	-15.592698	
10.8400	-23.375873	-32.850298	51.640245	-26.445339	806.284070	-40.756810	28.338691	-45.000000	40.315486	-45.000000	-45.000000	-2624.047976	-3884.667182	20.983839	-147.954130	1799.859549	-192.673182	12.621738	14.050613	-0.486007	32.014531	-30.256563	-45.000000	-45.000000	-2073.338651	-2442.349536	27.027415	50.757374	1429.346813	39.697057	13.015638	-15.625949	
10.8500	-23.649571	-32.754256	51.209475	-28.749211	807.958280	-40.827635	28.285286	-45.000000	40.359278	-45.000000	-45.000000	-2624.118366	-3884.560420	21.053963	-148.190094	1799.818760	-192.831131	12.748648	14.093457	-0.476297	32.075540	-30.394569	-45.000000	-45.000000	-2073.196736	-2442.263896	27.052836	50.811661	1429.320370	39.474516	13.096307	-15.665123	
10.8600	-23.912992	-32.659291	50.789290	-31.055136	809.648387	-40.910482	28.238958	-45.000000	40.403082	-45.000000	-45.000000	-2624.196606	-3884.450448	21.122739	-148.420725	1799.781534	-192.998218	12.873344	14.138312	-0.473408	32.137328	-30.526154	-45.000000	-45.000000	-2073.062824	-2442.176539	27.075393	50.854007	1429.288580	39.261319	13.179146	-15.712059	
10.8700	-24.176281	-32.563684	50.366256	-33.359944	811.349485	-41.005387	28.191683	-45.000000	40.441884	-45.000000	-45.000000	-2624.274905	-3884.339812	21.187854	-148.645046	1799.746308	-193.176443	12.998794	14.182605	-0.468246	32.198889	-30.657113	-45.000000	-45.000000	-2072.931756	-2442.091557	27.097139	50.886663	1429.260019	39.062698	13.259723	-15.768256	
10.8800	-24.431175	-32.469868	49.948890	-35.660826	813.056567	-41.111780	28.149942	-45.000000	40.482938	-45.000000	-45.000000	-2624.359115	-3884.229125	21.252518	-148.861822	1799.716017	-193.367673	13.119940	14.229818	-0.469300	32.259051	-30.781604	-45.000000	-45.000000	-2072.806899	-2442.007402	27.115860	50.907508	1429.230198	38.881712	13.340397	-15.834050	
10.8900	-24.691776	-32.376137	49.520025	-37.955018	814.764445	-41.228504	28.105665	-45.000000	40.517406	-45.000000	-45.000000	-2624.439963	-3884.121701	21.315584	-149.067927	1799.687906	-193.573965	13.241949	14.276366	-0.466597	32.317824	-30.907527	-45.000000	-45.000000	-2072.679333	-2441.929230	27.134806	50.921290	1429.208995	38.719246	13.416390	-15.910423	
10.9000	-24.950105	-32.283318	49.087524	-40.239718	816.467891	-41.354019	28.063480	-45.000000	40.554445	-45.000000	-45.000000	-2624.525250	-3884.017600	21.379828	-149.263303	1799.662325	-193.797777	13.360152	14.326179	-0.468931	32.373865	-31.029034	-45.000000	-45.000000	-2072.554747	-2441.854177	27.152729	50.929131	1429.190193	38.574058	13.490683	-15.996335	
10.9100	-25.214217	-32.189885	48.645074	-42.511871	818.161742	-41.486536	28.024219	-45.000000	40.584758	-45.000000	-45.000000	-2624.611732	-3883.918088	21.444277	-149.447434	1799.638192	-194.042706	13.477346	14.376565	-0.471757	32.428112	-31.151464	-45.000000	-45.000000	-2072.427665	-2441.784076	27.173761	50.932925	1429.177587	38.442995	13.561500	-16.091682	
10.9200	-25.469956	-32.097588	48.208903	-44.768082	819.841148	-41.624248	27.988769	-45.000000	40.620591	-45.000000	-45.000000	-2624.707068	-3883.819579	21.508386	-149.618770	1799.617160	-194.313219	13.585785	14.430048	-0.481593	32.479951	-31.267358	-45.000000	-45.000000	-2072.307257	-2441.715377	27.192918	50.929825	1429.160765	38.321486	13.632558	-16.192956	
10.9300	-25.725359	-32.006914	47.771656	-47.004617	821.501853	-41.765434	27.960029	-45.000000	40.653125	-45.000000	-45.000000	-2624.805266	-3883.724255	21.570456	-149.776039	1799.597197	-194.615070	13.688451	14.482745	-0.492889	32.531087	-31.381919	-45.000000	-45.000000	-2072.186308	-2441.651063	27.213020	50.920227	1429.144885	38.204103	13.701140	-16.299655	
10.9400	-25.976187	-31.917109	47.336089	-49.217419	823.140392	-41.908615	27.929925	-45.000000	40.687015	-45.000000	-45.000000	-2624.907081	-3883.630649	21.630733	-149.917297	1799.581496	-194.953288	13.780085	14.533746	-0.505334	32.579687	-31.493301	-45.000000	-45.000000	-2072.069612	-2441.591168	27.231045	50.908465	1429.126161	38.085414	13.768937	-16.410205	
10.9500	-26.226451	-31.827652	46.898556	-51.402544	824.754375	-42.052630	27.902391	-45.000000	40.717153	-45.000000	-45.000000	-2625.010391	-3883.539978	21.688300	-150.041221	1799.567004	-195.333767	13.861560	14.581535	-0.517467	32.627006	-31.603308	-45.000000	-45.000000	-2071.953832	-2441.535993	27.249576	50.894373	1429.108263	37.960412	13.834722	-16.524634	
10.9600	-26.477147	-31.736295	46.454649	-53.556186	826.342274	-42.196756	27.870727	-45.000000	40.743570	-45.000000	-45.000000	-2625.112747	-3883.451220	21.747355	-150.144323	1799.559486	-195.759444	13.929292	14.624161	-0.527250	32.672176	-31.713360	-45.000000	-45.000000	-2071.837807	-2441.489489	27.267538	50.883844	1429.090077	37.825336	13.900563	-16.644203	
10.9700	-26.727211	-31.642798	46.007438	-55.675407	827.903548	-42.340795	27.840524	-45.000000	40.767609	-45.000000	-45.000000	-2625.217367	-3883.365349	21.804356	-150.227212	1799.548184	-196.232343	13.984897	14.663402	-0.537242	32.715617	-31.821144	-45.000000	-45.000000	-2071.723266	-2441.445751	27.285667	50.873148	1429.071246	37.678310	13.965525	-16.766351	
10.9800	-26.980569	-31.543398	45.551309	-57.757888	829.437962	-42.485120	27.805716	-45.000000	40.785864	-45.000000	-45.000000	-2625.319723	-3883.281468	21.860766	-150.289545	1799.537304	-196.749664	14.028873	14.695842	-0.543121	32.757876	-31.930520	-45.000000	-45.000000	-2071.608422	-2441.408132	27.303891	50.866923	1429.051261	37.519172	14.030184	-16.891096	
10.9900	-27.231445	-31.439672	45.095995	-59.802322	830.945447	-42.630632	27.772867	-45.000000	40.807860	-45.000000	-45.000000	-2625.428599	-3883.201300	21.911219	-150.331185	1799.514031	-197.305403	14.062954	14.725684	-0.551080	32.798445	-32.034286	-45.000000	-45.000000	-2071.499420	-2441.369037	27.323085	50.858398	1429.031983	37.348858	14.094048	-17.015692	
11.0000	-27.480743	-31.332571	44.638211	-61.807897	832.425391	-42.778585	27.741218	-45.000000	40.830948	-45.000000	-45.000000	-2625.535558	-3883.123060	21.956755	-150.350162	1799.486404	-197.889071	14.088870	14.748155	-0.556991	32.837821	-32.133313	-45.000000	-45.000000	-2071.393757	-2441.334708	27.340833	50.847707	1429.014115	37.169696	14.155552	-17.137706	
11.0100	-27.719322	-31.226643	44.193511	-63.774513	833.876734	-42.930314	27.712494	-45.000000	40.864340	-45.000000	-45.000000	-2625.648860	-3883.047245	21.989922	-150.345824	1799.444159	-198.488211	14.109819	14.764792	-0.565230	32.874720	-32.219212	-45.000000	-45.000000	-2071.300093	-2441.297206	27.355667	50.826676	1428.996717	36.984706	14.213979	-17.251551	
11.0200	-27.949785	-31.120370	43.758928	-65.702168	835.297630	-43.086924	27.683468	-45.000000	40.898197	-45.000000	-45.000000	-2625.756787	-3882.968638	22.010489	-150.318311	1799.398166	-199.088651	14.129144	14.770275	-0.569958	32.910267	-32.297939	-45.000000	-45.000000	-2071.215263	-2441.260781	27.366039	50.794478	1428.976933	36.797569	14.268725	-17.353909	
11.0300	-28.168910	-31.014740	43.341883	-67.591167	836.685900	-43.249034	27.653640	-45.000000	40.936222	-45.000000	-45.000000	-2625.867121	-3882.888908	22.017203	-150.266642	1799.342879	-199.674217	14.150129	14.768349	-0.575396	32.943596	-32.366611	-45.000000	-45.000000	-2071.141976	-2441.221050	27.373613	50.748206	1428.956119	36.611249	14.321992	-17.444926	
11.0400	-28.385192	-30.904519	42.926291	-69.441914	838.039204	-43.416708	27.622750	-45.000000	40.967927	-45.000000	-45.000000	-2625.970741	-3882.807170	22.020074	-150.191236	1799.288832	-200.227036	14.176549	14.758697	-0.578695	32.976183	-32.434231	-45.000000	-45.000000	-2071.069795	-2441.189110	27.381794	50.694495	1428.935028	36.429023	14.377420	-17.529492	
11.0500	-28.597113	-30.790362	42.516201	-71.254945	839.355397	-43.589498	27.586486	-45.000000	40.999590	-45.000000	-45.000000	-2626.074710	-3882.726756	22.016620	-150.096026	1799.229069	-200.729370	14.211481	14.748256	-0.580927	33.007456	-32.496267	-45.000000	-45.000000	-2071.003992	-2441.160029	27.389906	50.634148	1428.915698	36.254291	14.434079	-17.607712	
11.0600	-28.808520	-30.668419	42.103799	-73.030866	840.632629	-43.766698	27.546172	-45.000000	41.026654	-45.000000	-45.000000	-2626.174343	-3882.646880	22.012214	-149.984860	1799.169674	-201.167536	14.258057	14.737866	-0.581878	33.038538	-32.558530	-45.000000	-45.000000	-2070.939165	-2441.138051	27.399875	50.569684	1428.896828	36.090555	14.493857	-17.683239	
11.0700	-29.018265	-30.538500	41.696411	-74.770219	841.869257	-43.947586	27.500344	-45.000000	41.053342	-45.000000	-45.000000	-2626.275327	-3882.570551	21.998685	-149.864684	1799.105081	-201.530498	14.317970	14.733594	-0.580218	33.069559	-32.616577	-45.000000	-45.000000	-2070.885055	-2441.113958	27.412403	50.495761	1428.875795	35.942090	14.551703	-17.751895	
